<?xml version="1.0" encoding="UTF-8"?>
<svg version="1.1" xmlns="http://www.w3.org/2000/svg" width="1015" height="1015">
<path d="M0 0 C1.29386627 -0.00701431 2.58773254 -0.01402863 3.92080688 -0.02125549 C8.07611582 -0.0406665 12.23136905 -0.0456896 16.38671875 -0.046875 C17.09423908 -0.04731686 17.80175941 -0.04775871 18.53071976 -0.04821396 C39.53076027 -0.0550954 60.24217949 0.22836319 81.07421875 3.203125 C82.35458008 3.37473145 83.63494141 3.54633789 84.95410156 3.72314453 C178.51109298 16.30462279 267.55659773 54.85607686 344.07421875 118.203125 C344.66509277 118.69490234 345.2559668 119.18667969 345.86474609 119.69335938 C362.96188835 133.96559069 380.10596741 149.29278648 394.48828125 166.33984375 C396.37613282 168.55783685 398.35124667 170.68554655 400.32421875 172.828125 C405.36237266 178.41852175 409.95964464 184.30345172 414.55566406 190.25634766 C416.10178405 192.23846353 417.67436318 194.19678725 419.25390625 196.15234375 C433.3197271 213.69448468 445.95262687 232.66066777 457.07421875 252.203125 C457.62021729 253.14720215 457.62021729 253.14720215 458.17724609 254.11035156 C495.16574724 318.1738744 517.46546164 389.55283154 524.07421875 463.203125 C524.1615477 464.17273163 524.24887665 465.14233826 524.33885193 466.1413269 C525.00906611 474.14715224 525.24815049 482.09704793 525.27734375 490.12890625 C525.28435806 491.42277252 525.29137238 492.71663879 525.29859924 494.04971313 C525.31801025 498.20502207 525.32303335 502.3602753 525.32421875 506.515625 C525.32466061 507.22314533 525.32510246 507.93066566 525.32555771 508.65962601 C525.33243915 529.65966652 525.04898056 550.37108574 522.07421875 571.203125 C521.81680908 573.12366699 521.81680908 573.12366699 521.55419922 575.08300781 C508.97272096 668.63999923 470.42126689 757.68550398 407.07421875 834.203125 C406.58244141 834.79399902 406.09066406 835.38487305 405.58398438 835.99365234 C391.31175306 853.0907946 375.98455727 870.23487366 358.9375 884.6171875 C356.7195069 886.50503907 354.5917972 888.48015292 352.44921875 890.453125 C346.858822 895.49127891 340.97389203 900.08855089 335.02099609 904.68457031 C333.03888022 906.2306903 331.0805565 907.80326943 329.125 909.3828125 C311.58285907 923.44863335 292.61667598 936.08153312 273.07421875 947.203125 C272.1301416 947.74912354 272.1301416 947.74912354 271.16699219 948.30615234 C207.10346935 985.29465349 135.72451221 1007.59436789 62.07421875 1014.203125 C61.10461212 1014.29045395 60.13500549 1014.3777829 59.13601685 1014.46775818 C51.13019151 1015.13797236 43.18029582 1015.37705674 35.1484375 1015.40625 C33.20763809 1015.41677147 33.20763809 1015.41677147 31.22763062 1015.42750549 C27.07232168 1015.4469165 22.91706845 1015.4519396 18.76171875 1015.453125 C18.05419842 1015.45356686 17.34667809 1015.45400871 16.61771774 1015.45446396 C-4.38232277 1015.4613454 -25.09374199 1015.17788681 -45.92578125 1012.203125 C-47.20614258 1012.03151855 -48.48650391 1011.85991211 -49.80566406 1011.68310547 C-143.36265548 999.10162721 -232.40816023 960.55017314 -308.92578125 897.203125 C-309.51665527 896.71134766 -310.1075293 896.21957031 -310.71630859 895.71289062 C-327.81345085 881.44065931 -344.95752991 866.11346352 -359.33984375 849.06640625 C-361.22769532 846.84841315 -363.20280917 844.72070345 -365.17578125 842.578125 C-370.21393516 836.98772825 -374.81120714 831.10279828 -379.40722656 825.14990234 C-380.95334655 823.16778647 -382.52592568 821.20946275 -384.10546875 819.25390625 C-398.1712896 801.71176532 -410.80418937 782.74558223 -421.92578125 763.203125 C-422.28978027 762.57374023 -422.6537793 761.94435547 -423.02880859 761.29589844 C-460.01730974 697.2323756 -482.31702414 625.85341846 -488.92578125 552.203125 C-489.05677467 550.74871506 -489.05677467 550.74871506 -489.19041443 549.2649231 C-489.86062861 541.25909776 -490.09971299 533.30920207 -490.12890625 525.27734375 C-490.13942772 523.33654434 -490.13942772 523.33654434 -490.15016174 521.35653687 C-490.16957275 517.20122793 -490.17459585 513.0459747 -490.17578125 508.890625 C-490.17622311 508.18310467 -490.17666496 507.47558434 -490.17712021 506.74662399 C-490.18400165 485.74658348 -489.90054306 465.03516426 -486.92578125 444.203125 C-486.7541748 442.92276367 -486.58256836 441.64240234 -486.40576172 440.32324219 C-473.82428346 346.76625077 -435.27282939 257.72074602 -371.92578125 181.203125 C-371.18811523 180.31681396 -371.18811523 180.31681396 -370.43554688 179.41259766 C-356.16331556 162.3154554 -340.83611977 145.17137634 -323.7890625 130.7890625 C-321.5710694 128.90121093 -319.4433597 126.92609708 -317.30078125 124.953125 C-311.7103845 119.91497109 -305.82545453 115.31769911 -299.87255859 110.72167969 C-297.89044272 109.1755597 -295.932119 107.60298057 -293.9765625 106.0234375 C-276.43442157 91.95761665 -257.46823848 79.32471688 -237.92578125 68.203125 C-237.29639648 67.83912598 -236.66701172 67.47512695 -236.01855469 67.10009766 C-171.95503185 30.11159651 -100.57607471 7.81188211 -26.92578125 1.203125 C-25.47137131 1.07213158 -25.47137131 1.07213158 -23.98757935 0.93849182 C-15.98175401 0.26827764 -8.03185832 0.02919326 0 0 Z " fill="#F5F5F5" transform="translate(489.92578125,-0.203125)"/>
<path d="M0 0 C59.31818182 0 59.31818182 0 70 5 C70 5.66 70 6.32 70 7 C70.556875 7.268125 71.11375 7.53625 71.6875 7.8125 C76.38897665 10.22677179 79.46392057 12.03623969 82.1875 16.6875 C82.92033203 17.89986328 82.92033203 17.89986328 83.66796875 19.13671875 C86.6778185 25.60657172 87.29868588 31.82281408 87.29052734 38.84350586 C87.29724457 39.68853165 87.30396179 40.53355743 87.31088257 41.40419006 C87.32975132 44.17446912 87.33378073 46.9445046 87.3359375 49.71484375 C87.34237181 51.65483192 87.34910064 53.59481912 87.35610962 55.5348053 C87.36805359 59.59215545 87.37179328 63.64942063 87.37060547 67.70678711 C87.37040214 72.88941354 87.39773212 78.07149252 87.43214989 83.25398922 C87.454452 87.25788344 87.45844204 91.26164643 87.45738602 95.26559639 C87.45973591 97.17565362 87.46852472 99.0857148 87.48405075 100.99571037 C87.50378363 103.67322446 87.49784509 106.3495641 87.48583984 109.02709961 C87.49707886 109.80503876 87.50831787 110.58297791 87.51989746 111.38449097 C87.45262699 117.32855992 85.7029783 121.75455135 83 127 C82.33333221 128.33333277 81.6666652 129.66666594 81 131 C80.34 131 79.68 131 79 131 C78.9175 131.598125 78.835 132.19625 78.75 132.8125 C77.78423221 135.62932273 76.51131433 136.47799132 74 138 C73.34 138 72.68 138 72 138 C72 138.66 72 139.32 72 140 C48.59432029 145.4013107 24.0208243 143 0 143 C0 95.81 0 48.62 0 0 Z " fill="#020202" transform="translate(40,436)"/>
<path d="M0 0 C0.78802002 0.1659668 1.57604004 0.33193359 2.38793945 0.50292969 C4.2961606 0.93370231 6.18265006 1.45867088 8.0625 2 C8.5575 2.99 8.5575 2.99 9.0625 4 C10.92660026 4.91510376 12.7914378 5.82873929 14.66015625 6.734375 C17.36665447 8.16023748 19.89322149 9.73885252 22.4375 11.4375 C23.27023437 11.99308594 24.10296875 12.54867187 24.9609375 13.12109375 C27.38137962 15.28509497 28.03260611 16.95799862 29.0625 20 C29.76650199 21.1484996 30.47472691 22.29442316 31.1875 23.4375 C34.41754103 29.81289934 34.06384415 37.66309732 32.484375 44.50390625 C31.75 46.5625 31.75 46.5625 30.0625 50 C29.670625 50.86625 29.27875 51.7325 28.875 52.625 C26.13502006 56.21531854 22.80165879 58.50923777 19.0625 61 C18.16015625 61.60457031 17.2578125 62.20914063 16.328125 62.83203125 C15.35359375 63.44433594 14.3790625 64.05664062 13.375 64.6875 C12.48425781 65.24824219 11.59351563 65.80898438 10.67578125 66.38671875 C1.11340519 70.65619044 -8.8267903 71.53134701 -19.1875 71.4375 C-20.36119141 71.43065186 -21.53488281 71.42380371 -22.74414062 71.41674805 C-35.68131241 71.1793769 -46.79766381 68.8871746 -58.46484375 63.16796875 C-65.34036595 59.92028923 -72.13621095 58.66144054 -79.6875 58.2109375 C-81.9375 58 -81.9375 58 -83.9375 57 C-83.9375 39.18 -83.9375 21.36 -83.9375 3 C-77.6675 2.01 -71.3975 1.02 -64.9375 0 C-60.30406701 -1.16803368 -60.30406701 -1.16803368 -55.6796875 -2.37109375 C-37.51730089 -6.53654139 -17.96962799 -3.85076215 0 0 Z " fill="#010101" transform="translate(457.9375,508)"/>
<path d="M0 0 C1.06669922 0.00515625 2.13339844 0.0103125 3.23242188 0.015625 C7.90755282 0.06240555 12.23787891 0.21743823 16.8125 1.25 C16.8125 1.91 16.8125 2.57 16.8125 3.25 C17.616875 3.435625 18.42125 3.62125 19.25 3.8125 C25.48980754 6.33031708 32.82348529 11.35386125 35.96289062 17.50341797 C39.69935722 28.14146484 39.4182995 38.83160793 39.33398438 49.98876953 C39.3125016 53.37474833 39.33388382 56.75861606 39.359375 60.14453125 C39.35673217 62.32812961 39.35160812 64.51172668 39.34375 66.6953125 C39.35184692 67.69144562 39.35994385 68.68757874 39.36828613 69.71389771 C39.23100271 80.14732787 36.10994394 89.61105006 28.8125 97.25 C24.03063031 101.25 24.03063031 101.25 20.8125 101.25 C20.8125 101.91 20.8125 102.57 20.8125 103.25 C13.881071 106.10316206 7.70143166 106.71272124 0.25 106.625 C-0.73935547 106.63660156 -1.72871094 106.64820313 -2.74804688 106.66015625 C-14.54748249 106.61317774 -22.38595566 102.17423733 -30.76953125 94.03125 C-32.31198315 92.09362448 -32.77891194 90.66969031 -33.1875 88.25 C-33.8475 88.25 -34.5075 88.25 -35.1875 88.25 C-38.27510175 81.45032623 -38.62736268 75.6391966 -38.5859375 68.2265625 C-38.58880768 67.08520844 -38.59167786 65.94385437 -38.59463501 64.76791382 C-38.59666918 62.36252341 -38.59118484 59.95711622 -38.57861328 57.55175781 C-38.56258107 53.89349878 -38.57846976 50.23634951 -38.59765625 46.578125 C-38.59567313 44.23176842 -38.59182802 41.88541252 -38.5859375 39.5390625 C-38.59201019 38.45646149 -38.59808289 37.37386047 -38.6043396 36.25845337 C-38.54207144 29.44642253 -37.52981105 23.65231687 -35.1875 17.25 C-34.5275 17.25 -33.8675 17.25 -33.1875 17.25 C-32.92710937 16.66605469 -32.66671875 16.08210938 -32.3984375 15.48046875 C-31.10966506 13.10663306 -29.7124146 11.47485946 -27.8125 9.5625 C-26.93464844 8.65951172 -26.93464844 8.65951172 -26.0390625 7.73828125 C-24.06141086 6.14864987 -22.6660821 5.6594574 -20.1875 5.25 C-20.1875 4.59 -20.1875 3.93 -20.1875 3.25 C-13.32981805 0.1065511 -7.48124422 -0.14624301 0 0 Z " fill="#030303" transform="translate(669.1875,469.75)"/>
<path d="M0 0 C1.49853516 -0.04350586 1.49853516 -0.04350586 3.02734375 -0.08789062 C14.55263615 -0.18581795 23.24011124 4.66848227 31.75 12.3125 C38.14704227 20.54959039 39.06039846 29.94194261 39.05078125 40.0234375 C39.05506638 41.0316153 39.0593515 42.03979309 39.06376648 43.07852173 C39.06948376 45.20142876 39.07002934 47.32435537 39.06567383 49.44726562 C39.06251624 52.67091768 39.08599821 55.89364875 39.11132812 59.1171875 C39.11360183 61.19010302 39.11430428 63.26302098 39.11328125 65.3359375 C39.122491 66.28729584 39.13170074 67.23865417 39.14118958 68.21884155 C39.07061998 78.57859458 36.25553265 88.12034777 29.75 96.3125 C26.94929858 98.77036603 24.06090013 100.61535712 20.75 102.3125 C20.12424072 102.6537793 19.49848145 102.99505859 18.85375977 103.34667969 C12.62774708 106.48163069 7.21474658 106.92184252 0.3125 106.8125 C-0.66009766 106.82796875 -1.63269531 106.8434375 -2.63476562 106.859375 C-11.24755319 106.81334808 -19.29502839 104.82984642 -25.75 98.8125 C-26.69359375 97.96171875 -26.69359375 97.96171875 -27.65625 97.09375 C-29.25 95.3125 -29.25 95.3125 -30.28125 93.15625 C-31.16583062 90.95570683 -31.16583062 90.95570683 -34.25 90.3125 C-38.63045352 83.29110558 -38.85197597 75.68886734 -38.81640625 67.65625 C-38.82260483 66.47333374 -38.82880341 65.29041748 -38.83518982 64.07165527 C-38.84225704 61.58407407 -38.83916859 59.09644527 -38.82641602 56.60888672 C-38.81253849 52.82300112 -38.84668775 49.03958426 -38.88476562 45.25390625 C-38.88571687 42.82552023 -38.8838577 40.39713115 -38.87890625 37.96875 C-38.89879356 36.28863831 -38.89879356 36.28863831 -38.91908264 34.57458496 C-38.81598129 25.78798057 -36.50366345 19.45405724 -31.07421875 12.54296875 C-20.89684225 2.81213162 -13.97492995 0.13317913 0 0 Z " fill="#030303" transform="translate(762.25,469.6875)"/>
<path d="M0 0 C3.38773905 2.43936766 6.11419705 4.67004608 8.70703125 7.94921875 C8.70703125 8.60921875 8.70703125 9.26921875 8.70703125 9.94921875 C9.36703125 9.94921875 10.02703125 9.94921875 10.70703125 9.94921875 C16.20880407 19.34937288 15.15345279 29.58304871 14.95703125 40.07421875 C14.87453125 46.30296875 14.79203125 52.53171875 14.70703125 58.94921875 C-2.45296875 58.94921875 -19.61296875 58.94921875 -37.29296875 58.94921875 C-36.17638682 70.16917939 -36.17638682 70.16917939 -32.29296875 75.94921875 C-26.86080269 79.16417417 -21.54928798 79.89913109 -15.29296875 78.94921875 C-12.62630208 77.61588542 -12.62630208 77.61588542 -11.29296875 74.94921875 C-10.63296875 72.30921875 -9.97296875 69.66921875 -9.29296875 66.94921875 C-1.37296875 66.94921875 6.54703125 66.94921875 14.70703125 66.94921875 C14.70703125 77.99153048 12.90243616 82.96795428 5.84765625 91.08984375 C3.90177973 92.93923052 1.9310939 94.44787664 -0.29296875 95.94921875 C-1.00066406 96.45453125 -1.70835937 96.95984375 -2.4375 97.48046875 C-12.58055391 103.37949849 -26.92885798 102.46135649 -38.09765625 100.16796875 C-46.8424825 96.98803193 -53.89998395 90.16738555 -58.79296875 82.32421875 C-62.09642923 74.89143268 -62.61057347 68.07876475 -62.62890625 60.0546875 C-62.63556305 59.02668533 -62.64221985 57.99868317 -62.64907837 56.93952942 C-62.6591604 54.77375058 -62.66389677 52.60794095 -62.66357422 50.44213867 C-62.66794197 47.15685987 -62.70429548 43.87293186 -62.7421875 40.58789062 C-62.74805793 38.47266079 -62.75202581 36.35742465 -62.75390625 34.2421875 C-62.76827728 33.27411667 -62.78264832 32.30604584 -62.79745483 31.30863953 C-62.74268002 22.99133937 -60.93324912 14.90235828 -55.66796875 8.26171875 C-53.29296875 5.94921875 -53.29296875 5.94921875 -51.29296875 5.94921875 C-50.96296875 4.95921875 -50.63296875 3.96921875 -50.29296875 2.94921875 C-49.65359375 2.80484375 -49.01421875 2.66046875 -48.35546875 2.51171875 C-47.67484375 2.32609375 -46.99421875 2.14046875 -46.29296875 1.94921875 C-46.01163086 1.31290527 -45.73029297 0.6765918 -45.44042969 0.02099609 C-44.29296875 -2.05078125 -44.29296875 -2.05078125 -42.30566406 -3.07568359 C-28.26916216 -7.03101556 -12.78336817 -7.62055684 0 0 Z " fill="#030303" transform="translate(969.29296875,475.05078125)"/>
<path d="M0 0 C1.02416016 -0.01546875 2.04832031 -0.0309375 3.10351562 -0.046875 C9.93713054 -0.01194278 14.97988535 1.16115823 20.9375 4.5 C21.95199219 5.0671875 22.96648438 5.634375 24.01171875 6.21875 C31.09144039 11.04438986 35.33024542 16.24919437 37.9375 24.5 C37.9375 26.48 37.9375 28.46 37.9375 30.5 C29.6875 30.5 21.4375 30.5 12.9375 30.5 C11.9475 28.52 10.9575 26.54 9.9375 24.5 C4.81512243 21.08508162 -1.10884077 21.62125625 -7.0625 22.5 C-10.21129489 24.26783877 -11.77533068 26.1330694 -13.0625 29.5 C-13.54869498 33.41132979 -12.84142725 36.44042985 -10.46875 39.66796875 C-7.27963282 42.0960466 -4.30765945 42.31937794 -0.4375 42.625 C1.00932652 42.77795627 2.45594442 42.93289924 3.90234375 43.08984375 C4.59956543 43.16058105 5.29678711 43.23131836 6.01513672 43.30419922 C15.35504398 44.25550804 23.16880661 47.14773159 30.9375 52.5 C32.3125 54.7265625 32.3125 54.7265625 32.9375 56.5 C33.5975 56.5 34.2575 56.5 34.9375 56.5 C38.92801051 65.22924174 40.90178836 74.47345991 38.25390625 83.9453125 C37.4375 85.875 37.4375 85.875 35.9375 88.5 C35.2775 88.5 34.6175 88.5 33.9375 88.5 C33.8446875 89.551875 33.8446875 89.551875 33.75 90.625 C31.74211318 97.72983028 26.29959483 100.7933767 20.2421875 104.30078125 C14.50780776 107.28460257 8.66481664 106.79476096 2.33325195 106.85009766 C0.95319684 106.86659427 -0.42677506 106.89380154 -1.80639648 106.93212891 C-10.26197893 107.16540034 -16.49155603 107.14770188 -23.0625 101.5 C-23.63234619 101.08476074 -24.20219238 100.66952148 -24.78930664 100.24169922 C-28.14226443 97.71568184 -29.90726931 95.54330742 -31.0625 91.5 C-31.7225 91.5 -32.3825 91.5 -33.0625 91.5 C-36.39281797 86.40045061 -37.30248753 83.74717529 -37.0625 77.5 C-32.97970499 77.32578883 -28.89786319 77.21917412 -24.8125 77.125 C-23.65363281 77.07472656 -22.49476563 77.02445313 -21.30078125 76.97265625 C-18.11603871 76.9174295 -15.19676968 76.92542227 -12.0625 77.5 C-9.515625 80.3984375 -9.515625 80.3984375 -8.0625 83.5 C-3.86054219 86.41943254 1.02017569 86.14375066 5.9375 85.5 C9.79294798 83.50342873 11.53555092 82.10292362 13.9375 78.5 C14.39144552 76.22087062 14.39144552 76.22087062 14.5625 73.8125 C14.63726563 73.00425781 14.71203125 72.19601562 14.7890625 71.36328125 C14.83804688 70.74839844 14.88703125 70.13351562 14.9375 69.5 C8.21497192 66.11676691 3.07603368 64.37196959 -4.5 64 C-14.32326891 63.50200128 -21.39018892 61.41600293 -28.9375 54.875 C-30.0625 53.5 -30.0625 53.5 -30.0625 51.5 C-30.98289062 51.11908203 -30.98289062 51.11908203 -31.921875 50.73046875 C-35.12655003 48.8883654 -35.93483823 46.74536971 -37.29296875 43.390625 C-39.31877931 35.78098128 -39.38328894 27.37695558 -36.125 20.125 C-33.03817529 14.83836918 -28.8014063 10.35443459 -24.0625 6.5 C-23.4025 6.5 -22.7425 6.5 -22.0625 6.5 C-22.0625 5.84 -22.0625 5.18 -22.0625 4.5 C-14.59565636 0.86943723 -8.25442863 -0.12514611 0 0 Z " fill="#040404" transform="translate(854.0625,469.5)"/>
<path d="M0 0 C0 7.59 0 15.18 0 23 C-3.3 23.66 -6.6 24.32 -10 25 C-14.4022187 28.27824797 -16.27796183 31.83388548 -18 37 C-18.33 39.97 -18.66 42.94 -19 46 C-12.73 46 -6.46 46 0 46 C0 52.6 0 59.2 0 66 C-6.27 66 -12.54 66 -19 66 C-19 92.4 -19 118.8 -19 146 C-27.91 146 -36.82 146 -46 146 C-46 119.6 -46 93.2 -46 66 C-50.62 66 -55.24 66 -60 66 C-60 59.07 -60 52.14 -60 45 C-55.05 45 -50.1 45 -45 45 C-45.04640625 43.81664062 -45.0928125 42.63328125 -45.140625 41.4140625 C-45.66377048 23.03979286 -45.66377048 23.03979286 -41 17 C-28.957398 5.45421903 -16.62927113 0 0 0 Z " fill="#040404" transform="translate(307,433)"/>
<path d="M0 0 C9.24 0 18.48 0 28 0 C28 6.27 28 12.54 28 19 C34.27 19 40.54 19 47 19 C47 25.93 47 32.86 47 40 C40.73 40 34.46 40 28 40 C28.06298858 47.47615281 28.13845773 54.95193086 28.23571491 62.42772198 C28.28038373 65.89930066 28.31964707 69.37076294 28.34643555 72.8425293 C28.37749455 76.8367256 28.43228188 80.83029368 28.48828125 84.82421875 C28.49467117 86.06709152 28.5010611 87.30996429 28.50764465 88.59049988 C28.52743881 89.75132584 28.54723297 90.91215179 28.56762695 92.1081543 C28.58428154 93.63704536 28.58428154 93.63704536 28.60127258 95.19682312 C29.06937682 98.48774047 29.96057457 100.38400345 32 103 C34.79439596 103.55277122 36.89701282 103.78781069 39.6875 103.8125 C42.100625 103.874375 44.51375 103.93625 47 104 C47 110.93 47 117.86 47 125 C43.885625 124.87625 40.77125 124.7525 37.5625 124.625 C36.60029541 124.59100098 35.63809082 124.55700195 34.64672852 124.52197266 C23.84664521 124.03491656 13.52631124 121.95434239 5.26171875 114.4140625 C1.0484783 109.51725796 -0.25151078 105.8958244 -0.22705078 99.48730469 C-0.22734283 98.84298492 -0.22763489 98.19866516 -0.22793579 97.53482056 C-0.22654694 95.41369979 -0.21100716 93.2929341 -0.1953125 91.171875 C-0.19158078 89.69785758 -0.18873456 88.22383768 -0.18673706 86.74981689 C-0.17911311 82.87655753 -0.15947535 79.00344895 -0.1373291 75.13024902 C-0.11684394 71.1753951 -0.10772964 67.22051673 -0.09765625 63.265625 C-0.07622819 55.51034007 -0.04105625 47.7552104 0 40 C-3.96 40 -7.92 40 -12 40 C-12 33.07 -12 26.14 -12 19 C-8.04 19 -4.08 19 0 19 C0 12.73 0 6.46 0 0 Z " fill="#030303" transform="translate(507,451)"/>
<path d="M0 0 C9.24 0 18.48 0 28 0 C28 1.32 28 2.64 28 4 C29.32 3.67 30.64 3.34 32 3 C32 2.34 32 1.68 32 1 C37.28670929 -0.18249131 42.35411126 -0.18390274 47.75 -0.1875 C48.70132813 -0.19974609 49.65265625 -0.21199219 50.6328125 -0.22460938 C56.73335596 -0.23714474 62.09396162 0.46272869 68 2 C68 2.66 68 3.32 68 4 C68.9075 4.268125 69.815 4.53625 70.75 4.8125 C73.72991834 5.90131632 75.68590359 6.86391101 78 9 C78 9.66 78 10.32 78 11 C78.66 11 79.32 11 80 11 C80 11.66 80 12.32 80 13 C75.05799644 17.31535181 69.12504867 20.72498192 63 23 C63 23.66 63 24.32 63 25 C60 27 60 27 57 27 C55.64567325 25.68799596 54.31266518 24.35368596 53 23 C52.01 22.67 51.02 22.34 50 22 C50 21.34 50 20.68 50 20 C41.09 20.99 41.09 20.99 32 22 C30.14176172 26.64559569 29.69585031 29.88752739 29.68115234 34.7277832 C29.67110672 35.48929184 29.6610611 36.25080048 29.65071106 37.03538513 C29.61993763 39.54050983 29.60286034 42.04552794 29.5859375 44.55078125 C29.56722114 46.29242364 29.54764737 48.034057 29.5272522 49.77568054 C29.47597442 54.35078609 29.43632542 58.92592101 29.39910889 63.50115967 C29.35904193 68.17337284 29.30796186 72.84546422 29.2578125 77.51757812 C29.16110469 86.67830828 29.07770176 95.8390889 29 105 C19.43 105 9.86 105 0 105 C0 70.35 0 35.7 0 0 Z " fill="#020202" transform="translate(142,474)"/>
<path d="M0 0 C24.92857143 0 24.92857143 0 31 5 C32.9860109 9.65210479 33.2967913 13.98620515 33.29052734 18.97387695 C33.29724457 19.75033569 33.30396179 20.52679443 33.31088257 21.32678223 C33.32980069 23.88068126 33.3337837 26.4343166 33.3359375 28.98828125 C33.34237003 30.77418625 33.34909873 32.56009021 33.35610962 34.34599304 C33.36806714 38.08574871 33.37179205 41.82541212 33.37060547 45.56518555 C33.37040244 50.33984445 33.39769484 55.1139071 33.43214989 59.88842487 C33.45446945 63.57664162 33.45844145 67.26471605 33.45738602 70.95299339 C33.45973474 72.71233358 33.46851689 74.47167813 33.48405075 76.23095131 C33.61427323 92.50323091 33.61427323 92.50323091 30.64004517 99.38468933 C22.91538947 106.9928449 8.89597326 104 0 104 C0 69.68 0 35.36 0 0 Z " fill="#F0F0F0" transform="translate(67,456)"/>
<path d="M0 0 C7.92 0 15.84 0 24 0 C24.01458252 2.97281982 24.02916504 5.94563965 24.04418945 9.00854492 C24.09451184 18.82744513 24.16110283 28.64618635 24.23571491 38.46493053 C24.28045469 44.41841976 24.31970302 50.37183998 24.34643555 56.32543945 C24.37243229 62.07030097 24.41280934 67.81489745 24.46318626 73.55959511 C24.47987948 75.75201434 24.49137843 77.94447944 24.49761391 80.13695335 C24.50722811 83.20641279 24.53525599 86.27519039 24.56762695 89.34448242 C24.56547432 90.70610252 24.56547432 90.70610252 24.5632782 92.0952301 C24.63372656 96.81425155 24.78014682 100.25599084 28 104 C31.17861973 104.82130678 31.17861973 104.82130678 34.6875 104.8125 C36.770625 104.874375 38.85375 104.93625 41 105 C41 111.27 41 117.54 41 124 C37.68699133 124.08169062 34.37603952 124.14083043 31.0625 124.1875 C30.13630859 124.21263672 29.21011719 124.23777344 28.25585938 124.26367188 C20.08664659 124.34966359 12.16164783 122.90969179 5.61364365 117.68066978 C-0.16921367 111.65760913 -0.57273452 103.01414738 -0.45410156 95.13427734 C-0.45468567 94.0989386 -0.45526978 93.06359985 -0.45587158 91.99688721 C-0.45310761 88.60955064 -0.42209507 85.22311839 -0.390625 81.8359375 C-0.38315663 79.47368856 -0.37746651 77.11143339 -0.37347412 74.74917603 C-0.35826492 68.55786779 -0.31902351 62.36694005 -0.2746582 56.17578125 C-0.23360377 49.84770859 -0.21544141 43.51957394 -0.1953125 37.19140625 C-0.15252478 24.7940775 -0.08221328 12.39713005 0 0 Z " fill="#050505" transform="translate(572,452)"/>
<path d="M0 0 C0 18.48 0 36.96 0 56 C-2.97 56.495 -2.97 56.495 -6 57 C-6 57.66 -6 58.32 -6 59 C-12.98982028 60.65598009 -19.57573468 61.31229463 -26.75 61.25 C-28.10931641 61.26160156 -28.10931641 61.26160156 -29.49609375 61.2734375 C-35.68642047 61.25536355 -40.72271776 60.99956489 -45.5625 56.75 C-46.366875 55.8425 -47.17125 54.935 -48 54 C-48.86625 53.0925 -49.7325 52.185 -50.625 51.25 C-55.02843832 45.81862971 -56.55379972 39.15691998 -56.2890625 32.26171875 C-55.32933648 24.75251111 -52.10519864 16.77798154 -46 12 C-45.01 12 -44.02 12 -43 12 C-43 11.34 -43 10.68 -43 10 C-37.18416364 6.58878829 -31.3887471 4.36017393 -24.875 2.75 C-24.21886719 2.58725586 -23.56273437 2.42451172 -22.88671875 2.25683594 C-15.18651277 0.44705699 -7.96193886 0 0 0 Z " fill="#040404" transform="translate(363,509)"/>
<path d="M0 0 C4.7903049 0.47903049 8.22399122 2.07894832 11.75 5.375 C14.93352084 10.47147315 15.19174277 14.57729726 15.1484375 20.39453125 C15.15130768 21.2525383 15.15417786 22.11054535 15.15713501 22.99455261 C15.15916955 24.80407371 15.15368246 26.61361711 15.14111328 28.4230957 C15.12510992 31.16864212 15.14095179 33.91270331 15.16015625 36.65820312 C15.15817256 38.42448237 15.15432627 40.19076071 15.1484375 41.95703125 C15.15754654 43.17154716 15.15754654 43.17154716 15.1668396 44.41059875 C15.08601213 51.08420194 13.9767833 57.50173122 9.8125 62.875 C5.72816244 65.84542732 1.71883063 65.71767797 -3.25 65.375 C-8.41123812 63.55338655 -10.7368623 61.21511704 -13.25 56.375 C-14.19702775 51.2853109 -14.42290881 46.26108118 -14.453125 41.09765625 C-14.45882507 40.32747665 -14.46452515 39.55729706 -14.47039795 38.76377869 C-14.47978884 37.14437205 -14.48635821 35.52494681 -14.49023438 33.90551758 C-14.49995949 31.44773759 -14.53104606 28.99078823 -14.5625 26.53320312 C-14.56903002 24.95052573 -14.57428049 23.36784244 -14.578125 21.78515625 C-14.5904718 21.06094986 -14.6028186 20.33674347 -14.61553955 19.59059143 C-14.58876396 13.36710757 -13.27045993 7.91686894 -9.3125 2.9375 C-6.16214369 0.55086643 -3.8935281 0.44925324 0 0 Z " fill="#FBFBFB" transform="translate(762.25,489.625)"/>
<path d="M0 0 C3.50103395 1.53091807 5.30420982 3.70203118 7.11962891 7.08862305 C8.36415474 11.20425549 8.32496455 15.11609786 8.3359375 19.39453125 C8.3425943 20.30071701 8.3492511 21.20690277 8.35610962 22.14054871 C8.36621438 24.05437192 8.37092731 25.96823021 8.37060547 27.88208008 C8.3749699 30.79242846 8.41128796 33.70124864 8.44921875 36.61132812 C8.45508932 38.47655735 8.45905711 40.34179373 8.4609375 42.20703125 C8.47530853 43.06875443 8.48967957 43.9304776 8.50448608 44.8183136 C8.46203407 50.5040695 7.53539242 55.38532977 4 60 C2.515 60.495 2.515 60.495 1 61 C1 61.66 1 62.32 1 63 C-2.7311703 64.86558515 -7.17481315 64.58899088 -11.08203125 63.328125 C-12.74717749 62.60916165 -14.37774964 61.81112518 -16 61 C-16 60.34 -16 59.68 -16 59 C-16.66 59 -17.32 59 -18 59 C-21.47680879 53.20531868 -21.16468878 46.29074152 -21.203125 39.72265625 C-21.20882507 38.95247665 -21.21452515 38.18229706 -21.22039795 37.38877869 C-21.22978884 35.76937205 -21.23635821 34.14994681 -21.24023438 32.53051758 C-21.24995949 30.07273759 -21.28104606 27.61578823 -21.3125 25.15820312 C-21.31903002 23.57552573 -21.32428049 21.99284244 -21.328125 20.41015625 C-21.3404718 19.68594986 -21.3528186 18.96174347 -21.36553955 18.21559143 C-21.33874142 11.98686959 -19.91980888 6.69199867 -16.2421875 1.53515625 C-11.52997619 -1.69114871 -5.43558434 -0.73147075 0 0 Z " fill="#FAFAFA" transform="translate(676,491)"/>
<path d="M0 0 C9.9 0 19.8 0 30 0 C30 8.25 30 16.5 30 25 C20.1 25 10.2 25 0 25 C0 16.75 0 8.5 0 0 Z " fill="#0A0A0A" transform="translate(195,554)"/>
<path d="M0 0 C0 0.66 0 1.32 0 2 C0.7425 2.04125 1.485 2.0825 2.25 2.125 C6.24527135 3.3962227 7.05527068 5.34127196 9 9 C9.4525707 11.82268481 9.38288369 14.52623245 9.25 17.375 C9.1675 19.89125 9.085 22.4075 9 25 C-0.24 25 -9.48 25 -19 25 C-19 8.51219512 -19 8.51219512 -13.4375 2 C-8.84514994 -0.67191276 -5.18591889 -0.46119832 0 0 Z " fill="#E6E6E6" transform="translate(951,490)"/>
<path d="M0 0 C1.12101105 0.00007553 2.24202209 0.00015106 3.39700317 0.00022888 C4.61161224 0.00539017 5.82622131 0.01055145 7.07763672 0.01586914 C8.31778534 0.01728409 9.55793396 0.01869904 10.83566284 0.02015686 C14.13350555 0.02481443 17.43129968 0.033801 20.72912598 0.04486084 C24.09398808 0.05508808 27.4588573 0.0596573 30.82373047 0.06469727 C37.42661415 0.0757427 44.02946521 0.09249292 50.63232422 0.11352539 C50.63232422 0.44352539 50.63232422 0.77352539 50.63232422 1.11352539 C49.41331421 1.15110962 49.41331421 1.15110962 48.16967773 1.18945312 C44.5112167 1.30501657 40.85303894 1.42792123 37.19482422 1.55102539 C35.91542969 1.5903418 34.63603516 1.6296582 33.31787109 1.67016602 C31.49545898 1.73300781 31.49545898 1.73300781 29.63623047 1.79711914 C28.51031494 1.83377686 27.38439941 1.87043457 26.22436523 1.90820312 C23.70378981 1.82570584 23.70378981 1.82570584 22.63232422 3.11352539 C20.41544428 3.27226494 18.19377124 3.36486376 15.97216797 3.42993164 C15.30770157 3.45071274 14.64323517 3.47149384 13.95863342 3.49290466 C11.82913878 3.55846197 9.69951754 3.61731324 7.56982422 3.67602539 C6.12905574 3.71920478 4.68830023 3.76281888 3.24755859 3.80688477 C-0.29071618 3.91414932 -3.82913447 4.0153991 -7.36767578 4.11352539 C-7.36767578 3.12352539 -7.36767578 2.13352539 -7.36767578 1.11352539 C-4.77439735 -0.18311382 -2.9035951 -0.0065103 0 0 Z " fill="#E5E5E5" transform="translate(45.36767578125,578.886474609375)"/>
<path d="M0 0 C8.25 0 16.5 0 25 0 C25.33 0.99 25.66 1.98 26 3 C17.75 3 9.5 3 1 3 C1.66 4.65 2.32 6.3 3 8 C2.01 8.495 2.01 8.495 1 9 C0 7 0 7 0 0 Z " fill="#101010" transform="translate(817,547)"/>
<path d="M0 0 C0 0.99 0 1.98 0 3 C-1.32 3.33 -2.64 3.66 -4 4 C-4 4.66 -4 5.32 -4 6 C-7 8 -7 8 -10 8 C-11.37562854 6.71034824 -12.70766393 5.37310707 -14 4 C-14.99 3.34 -15.98 2.68 -17 2 C-11.21642935 -0.01167675 -6.09781001 -0.22084624 0 0 Z " fill="#151515" transform="translate(209,493)"/>
<path d="M0 0 C2.4375 1.0625 2.4375 1.0625 5 3 C6.40288656 7.95686583 5.95627529 11.28192431 4 16 C2.26337666 12.77484237 1.1094072 9.48670834 0 6 C-0.66 6 -1.32 6 -2 6 C-2.66 4.68 -3.32 3.36 -4 2 C-2.68 2.33 -1.36 2.66 0 3 C0 2.01 0 1.02 0 0 Z " fill="#DFDFDF" transform="translate(980,479)"/>
<path d="M0 0 C0.86625 0.2784375 0.86625 0.2784375 1.75 0.5625 C4.22600969 1.04394633 5.60194629 0.63948099 8 0 C8.66 0.33 9.32 0.66 10 1 C8.515 2.485 8.515 2.485 7 4 C8.65 5.65 10.3 7.3 12 9 C11.34 9 10.68 9 10 9 C9.67 9.66 9.34 10.32 9 11 C8.0925 10.236875 7.185 9.47375 6.25 8.6875 C3.885444 6.71516893 1.48694058 4.81737966 -1 3 C-0.67 2.01 -0.34 1.02 0 0 Z " fill="#D9D9D9" transform="translate(966,470)"/>
<path d="M0 0 C0.69738281 0.01353516 1.39476562 0.02707031 2.11328125 0.04101562 C3.82585541 0.0762055 5.53802941 0.13000845 7.25 0.1875 C7.25 1.1775 7.25 2.1675 7.25 3.1875 C0.98 3.1875 -5.29 3.1875 -11.75 3.1875 C-7.36449685 -0.10162736 -5.15390167 -0.18998314 0 0 Z " fill="#1A1A1A" transform="translate(546.75,487.8125)"/>
<path d="M0 0 C0.763125 0.556875 1.52625 1.11375 2.3125 1.6875 C2.3125 2.3475 2.3125 3.0075 2.3125 3.6875 C2.9725 3.6875 3.6325 3.6875 4.3125 3.6875 C4.3125 4.3475 4.3125 5.0075 4.3125 5.6875 C2.5625 6.9765625 2.5625 6.9765625 0.3125 8.3125 C-0.80125 8.98152344 -0.80125 8.98152344 -1.9375 9.6640625 C-2.515 10.00179688 -3.0925 10.33953125 -3.6875 10.6875 C-4.0175 9.6975 -4.3475 8.7075 -4.6875 7.6875 C-4.0275 7.6875 -3.3675 7.6875 -2.6875 7.6875 C-3.23473683 4.31287285 -3.7424 2.60515 -5.6875 -0.3125 C-2.6875 -1.3125 -2.6875 -1.3125 0 0 Z " fill="#141414" transform="translate(217.6875,481.3125)"/>
<path d="M0 0 C-2.13493354 3.20240031 -2.97082743 3.68868799 -6.375 5.125 C-7.14585937 5.45757812 -7.91671875 5.79015625 -8.7109375 6.1328125 C-11.95315811 7.36109403 -14.51918539 8 -18 8 C-5.38940286 -2.69470143 -5.38940286 -2.69470143 0 0 Z " fill="#242424" transform="translate(753,471)"/>
<path d="M0 0 C0.33 0 0.66 0 1 0 C0.67 3.96 0.34 7.92 0 12 C-0.33 12 -0.66 12 -1 12 C-1 9.36 -1 6.72 -1 4 C-8.92 4 -16.84 4 -25 4 C-25 3.67 -25 3.34 -25 3 C-24.31373535 2.98018066 -23.6274707 2.96036133 -22.92041016 2.93994141 C-19.82154221 2.84489055 -16.72336706 2.73513153 -13.625 2.625 C-12.54476562 2.5940625 -11.46453125 2.563125 -10.3515625 2.53125 C-9.3203125 2.49257813 -8.2890625 2.45390625 -7.2265625 2.4140625 C-6.27346191 2.3826416 -5.32036133 2.3512207 -4.33837891 2.31884766 C-1.81104824 2.21444204 -1.81104824 2.21444204 0 0 Z " fill="#AEAEAE" transform="translate(985,538)"/>
<path d="M0 0 C3.96 0 7.92 0 12 0 C12 6.27 12 12.54 12 19 C11.67 19 11.34 19 11 19 C10.95101562 17.94039062 10.90203125 16.88078125 10.8515625 15.7890625 C10.77653291 14.40101503 10.70098515 13.01299549 10.625 11.625 C10.5940625 10.92632813 10.563125 10.22765625 10.53125 9.5078125 C10.40500502 5.29814173 10.40500502 5.29814173 8 2 C7.01 2 6.02 2 5 2 C4.01 2 3.02 2 2 2 C1.34 1.34 0.68 0.68 0 0 Z " fill="#121212" transform="translate(601,557)"/>
<path d="M0 0 C0.33 0 0.66 0 1 0 C1 5.28 1 10.56 1 16 C1.99 16 2.98 16 4 16 C4 16.99 4 17.98 4 19 C5.98 19 7.96 19 10 19 C10 19.33 10 19.66 10 20 C2.25 20.125 2.25 20.125 0 19 C0 12.73 0 6.46 0 0 Z " fill="#3D3D3D" transform="translate(374,546)"/>
<path d="M0 0 C0.99 0 1.98 0 3 0 C3.66 0.66 4.32 1.32 5 2 C3.35 3.98 1.7 5.96 0 8 C-1.32 7.34 -2.64 6.68 -4 6 C-2.84826645 3.53199953 -1.95216435 1.95216435 0 0 Z " fill="#EFEFEF" transform="translate(770,546)"/>
<path d="M0 0 C0.33 0.66 0.66 1.32 1 2 C1.33 1.34 1.66 0.68 2 0 C3.65 0 5.3 0 7 0 C6.67 1.65 6.34 3.3 6 5 C2.04 5 -1.92 5 -6 5 C-5.01 4.01 -4.02 3.02 -3 2 C-2.01 2 -1.02 2 0 2 C0 1.34 0 0.68 0 0 Z " fill="#1E1E1E" transform="translate(501,486)"/>
<path d="M0 0 C0.33 0.66 0.66 1.32 1 2 C3.02463255 2.65213292 3.02463255 2.65213292 5 3 C5 4.32 5 5.64 5 7 C5.99 7.33 6.98 7.66 8 8 C6.3125 8.8125 6.3125 8.8125 4 9 C1.1875 6.8125 1.1875 6.8125 -1 4 C-0.8125 1.6875 -0.8125 1.6875 0 0 Z " fill="#D9D9D9" transform="translate(935,544)"/>
<path d="M0 0 C3.73584906 1.47169811 3.73584906 1.47169811 5 4 C4.360625 4.61875 3.72125 5.2375 3.0625 5.875 C0.96116416 7.82597612 0.96116416 7.82597612 0 10 C-0.99 9.67 -1.98 9.34 -3 9 C-2.67 7.68 -2.34 6.36 -2 5 C-1.34 5 -0.68 5 0 5 C0 4.34 0 3.68 0 3 C-0.66 3 -1.32 3 -2 3 C-2 2.34 -2 1.68 -2 1 C-1.34 0.67 -0.68 0.34 0 0 Z " fill="#0E0E0E" transform="translate(291,455)"/>
<path d="M0 0 C3.96 0 7.92 0 12 0 C12 0.99 12 1.98 12 3 C10.02 3.33 8.04 3.66 6 4 C6 3.67 6 3.34 6 3 C3.03 2.505 3.03 2.505 0 2 C0 1.34 0 0.68 0 0 Z " fill="#E3E3E3" transform="translate(180,494)"/>
<path d="M0 0 C5.75 0.75 5.75 0.75 8 3 C4.6875 4.625 4.6875 4.625 1 6 C0.01 5.34 -0.98 4.68 -2 4 C-1.34 2.68 -0.68 1.36 0 0 Z " fill="#0C0C0C" transform="translate(464,569)"/>
<path d="M0 0 C0.99 0.99 1.98 1.98 3 3 C0.42215154 5.64752004 -1.91648098 7.94432065 -5 10 C-5.33 8.68 -5.66 7.36 -6 6 C-5.38125 5.938125 -4.7625 5.87625 -4.125 5.8125 C-1.72238859 5.171081 -1.72238859 5.171081 -0.75 2.4375 C-0.5025 1.633125 -0.255 0.82875 0 0 Z " fill="#131313" transform="translate(791,560)"/>
<path d="M0 0 C2.83833554 1.13533421 4.80962228 2.29083424 7.125 4.25 C4.3125 4.875 4.3125 4.875 1.125 5.25 C-1.24341312 3.67105792 -2.94245228 2.2745738 -4.875 0.25 C-2.875 -0.75 -2.875 -0.75 0 0 Z " fill="#101010" transform="translate(869.875,471.75)"/>
<path d="M0 0 C-0.33 0.99 -0.66 1.98 -1 3 C-4.61642624 4.6691198 -8.20574012 3.65669883 -12 3 C-8.61326653 -2.08010021 -5.54065966 -0.94086673 0 0 Z " fill="#E0E0E0" transform="translate(106,434)"/>
<path d="M0 0 C0.66 0 1.32 0 2 0 C2.33 1.32 2.66 2.64 3 4 C0.6875 6.0625 0.6875 6.0625 -2 8 C-2.99 7.67 -3.98 7.34 -5 7 C-5 6.34 -5 5.68 -5 5 C-4.01 5 -3.02 5 -2 5 C-1.34 3.35 -0.68 1.7 0 0 Z " fill="#101010" transform="translate(479,561)"/>
<path d="M0 0 C0.66 0.33 1.32 0.66 2 1 C1.67 2.32 1.34 3.64 1 5 C-2.87493656 6.07637127 -4.52452927 5.94566951 -8 4 C-6.71349294 3.30289269 -5.42059335 2.61757124 -4.125 1.9375 C-3.40570312 1.55464844 -2.68640625 1.17179688 -1.9453125 0.77734375 C-1.30335938 0.52082031 -0.66140625 0.26429688 0 0 Z " fill="#C9C9C9" transform="translate(969,570)"/>
<path d="M0 0 C0 1.65 0 3.3 0 5 C-2 6 -2 6 -5 6 C-5.66 5.67 -6.32 5.34 -7 5 C-5.22678182 1.07358831 -4.52021524 0 0 0 Z " fill="#EAEAEA" transform="translate(947,546)"/>
<path d="M0 0 C0 0.99 0 1.98 0 3 C0.66 3.66 1.32 4.32 2 5 C-5.75 4.25 -5.75 4.25 -8 2 C-4.77208445 -0.1519437 -3.71599191 -0.20086443 0 0 Z " fill="#111111" transform="translate(660,571)"/>
<path d="M0 0 C3 0 3 0 4.6875 1.375 C6 3 6 3 6 5 C4.02 5.33 2.04 5.66 0 6 C-1.125 2.25 -1.125 2.25 0 0 Z " fill="#E4E4E4" transform="translate(677,495)"/>
<path d="M0 0 C0.66 0.33 1.32 0.66 2 1 C1.67 2.32 1.34 3.64 1 5 C-1.875 5.625 -1.875 5.625 -5 6 C-5.66 5.34 -6.32 4.68 -7 4 C-4.61426621 2.10786631 -2.92824652 0.97608217 0 0 Z " fill="#303030" transform="translate(930,471)"/>
<path d="M0 0 C0.33 0 0.66 0 1 0 C1 1.65 1 3.3 1 5 C1.66 5 2.32 5 3 5 C2.50168276 8.68754757 1.89932357 10.60490662 -1 13 C-2.12758089 9.61725734 -1.81750262 8.23221777 -1.0625 4.8125 C-0.86785156 3.91144531 -0.67320312 3.01039063 -0.47265625 2.08203125 C-0.23869141 1.05142578 -0.23869141 1.05142578 0 0 Z " fill="#0C0C0C" transform="translate(487,546)"/>
<path d="M0 0 C0.53625 0.226875 1.0725 0.45375 1.625 0.6875 C0.635 1.3475 -0.355 2.0075 -1.375 2.6875 C-3.15334981 4.32905367 -4.28817885 5.51385771 -5.375 7.6875 C-6.035 7.6875 -6.695 7.6875 -7.375 7.6875 C-7.045 6.3675 -6.715 5.0475 -6.375 3.6875 C-7.035 3.3575 -7.695 3.0275 -8.375 2.6875 C-2.95961538 -0.38942308 -2.95961538 -0.38942308 0 0 Z " fill="#0C0C0C" transform="translate(937.375,470.3125)"/>
<path d="M0 0 C2.31 0.66 4.62 1.32 7 2 C4.04288438 3.64284201 1.37991574 4.6442194 -2 5 C-2.66 4.34 -3.32 3.68 -4 3 C-3.01 3 -2.02 3 -1 3 C-0.67 2.01 -0.34 1.02 0 0 Z " fill="#151515" transform="translate(683,570)"/>
<path d="M0 0 C0.33 0.66 0.66 1.32 1 2 C0.01 2.33 -0.98 2.66 -2 3 C-2.99 2.34 -3.98 1.68 -5 1 C-7.50896686 0.54398739 -7.50896686 0.54398739 -10.1875 0.375 C-11.08855469 0.30023438 -11.98960937 0.22546875 -12.91796875 0.1484375 C-13.60503906 0.09945313 -14.29210937 0.05046875 -15 0 C-15 -0.33 -15 -0.66 -15 -1 C-4.17046113 -2.55608908 -4.17046113 -2.55608908 0 0 Z " fill="#353535" transform="translate(681,491)"/>
<path d="M0 0 C0.66 0.33 1.32 0.66 2 1 C0.92807816 2.3218362 -0.15802695 3.63217927 -1.25 4.9375 C-1.85328125 5.66839844 -2.4565625 6.39929688 -3.078125 7.15234375 C-5.10741134 9.10326334 -6.254407 9.61731779 -9 10 C-9 8 -9 8 -7.125 5.875 C-5 4 -5 4 -3 4 C-2.67 3.01 -2.34 2.02 -2 1 C-1.34 0.67 -0.68 0.34 0 0 Z " fill="#323232" transform="translate(921,477)"/>
<path d="M0 0 C0.99 0 1.98 0 3 0 C3.33 0.66 3.66 1.32 4 2 C6.01669827 3.13350534 6.01669827 3.13350534 8 4 C8 4.66 8 5.32 8 6 C4.33118845 5.29445932 1.29549466 3.72264494 -2 2 C-1.34 1.34 -0.68 0.68 0 0 Z " fill="#202020" transform="translate(834,570)"/>
<path d="M0 0 C0.66 0.33 1.32 0.66 2 1 C1.69381595 4.67420866 1.24228216 5.78135513 -1.5625 8.3125 C-2.366875 8.869375 -3.17125 9.42625 -4 10 C-5.32 9.34 -6.64 8.68 -8 8 C-6.576875 7.4121875 -6.576875 7.4121875 -5.125 6.8125 C-1.65872662 4.80206144 -1.0197307 3.77300358 0 0 Z " fill="#222222" transform="translate(959,547)"/>
<path d="M0 0 C0.66 0.33 1.32 0.66 2 1 C0.12050295 4.57104439 -1.17053157 6.54744301 -5 8 C-5.33 6.68 -5.66 5.36 -6 4 C-4.02 2.68 -2.04 1.36 0 0 Z " fill="#2B2B2B" transform="translate(281,439)"/>
<path d="M0 0 C2.625 0.375 2.625 0.375 5 1 C5 1.66 5 2.32 5 3 C5.99 3.33 6.98 3.66 8 4 C5.25 4.6875 5.25 4.6875 2 5 C-0.375 3.5625 -0.375 3.5625 -2 2 C-1.34 1.34 -0.68 0.68 0 0 Z " fill="#242424" transform="translate(406,570)"/>
<path d="M0 0 C0.66 0 1.32 0 2 0 C2.33 1.32 2.66 2.64 3 4 C2.01 4 1.02 4 0 4 C0.33 4.66 0.66 5.32 1 6 C1.13415472 8.6723621 1.04318541 11.32250488 1 14 C0.67 14 0.34 14 0 14 C-0.144375 13.05125 -0.28875 12.1025 -0.4375 11.125 C-0.82935399 8.1065506 -0.82935399 8.1065506 -2 6 C-1.39421747 3.98072489 -0.73080266 1.97746603 0 0 Z " fill="#1D1D1D" transform="translate(634,487)"/>
<path d="M0 0 C1.9375 0.125 1.9375 0.125 4 1 C5.75 3.0625 5.75 3.0625 7 5 C6.34 5 5.68 5 5 5 C4.67 5.66 4.34 6.32 4 7 C2.02 5.35 0.04 3.7 -2 2 C-1.34 1.34 -0.68 0.68 0 0 Z " fill="#D2D2D2" transform="translate(971,474)"/>
<path d="M0 0 C-1.26941497 3.91402949 -2.51167694 5.79072873 -6 8 C-6 6.35 -6 4.7 -6 3 C-5.34 3 -4.68 3 -4 3 C-4 2.34 -4 1.68 -4 1 C-2 0 -2 0 0 0 Z " fill="#1D1D1D" transform="translate(887,561)"/>
<path d="M0 0 C-2 2 -2 2 -4 3 C-6.00800456 2.71887936 -8.01014051 2.38932033 -10 2 C-6.19832777 -0.53444815 -4.31588991 -1.33941411 0 0 Z M-5 3 C-3.515 3.99 -3.515 3.99 -2 5 C-2.99 5 -3.98 5 -5 5 C-5 4.34 -5 3.68 -5 3 Z " fill="#212121" transform="translate(846,471)"/>
<path d="M0 0 C2.97 0 5.94 0 9 0 C9 0.99 9 1.98 9 3 C8.34 3 7.68 3 7 3 C7 3.99 7 4.98 7 6 C6.01 6 5.02 6 4 6 C4.66 4.68 5.32 3.36 6 2 C3.03 1.505 3.03 1.505 0 1 C0 0.67 0 0.34 0 0 Z " fill="#2B2B2B" transform="translate(354,509)"/>
<path d="M0 0 C-0.33 0.99 -0.66 1.98 -1 3 C-3.97 3 -6.94 3 -10 3 C-7.7846105 -1.43077901 -4.3377361 -1.20492669 0 0 Z " fill="#3C3C3C" transform="translate(860,488)"/>
<path d="M0 0 C0.66 0.33 1.32 0.66 2 1 C0.35 2.65 -1.3 4.3 -3 6 C-4.32 5.34 -5.64 4.68 -7 4 C-6.34 4 -5.68 4 -5 4 C-5 3.34 -5 2.68 -5 2 C-2.625 0.9375 -2.625 0.9375 0 0 Z " fill="#1F1F1F" transform="translate(654,471)"/>
<path d="M0 0 C0 0.99 0 1.98 0 3 C-1.65 3.33 -3.3 3.66 -5 4 C-5 3.34 -5 2.68 -5 2 C-6.98 2 -8.96 2 -11 2 C-11 1.67 -11 1.34 -11 1 C-3.375 0 -3.375 0 0 0 Z " fill="#0E0E0E" transform="translate(777,572)"/>
<path d="M0 0 C0.66 0.99 1.32 1.98 2 3 C2 2.34 2 1.68 2 1 C2.66 1 3.32 1 4 1 C4 1.99 4 2.98 4 4 C1 6 1 6 -2 6 C-1.125 1.125 -1.125 1.125 0 0 Z " fill="#101010" transform="translate(871,569)"/>
<path d="M0 0 C0.66 0.33 1.32 0.66 2 1 C0.12050295 4.57104439 -1.17053157 6.54744301 -5 8 C-3.8141763 4.62496331 -2.72426311 2.35277269 0 0 Z " fill="#D2D2D2" transform="translate(755,491)"/>
<path d="M0 0 C0 1.66666667 0 3.33333333 0 5 C0.31478446 6.33783393 0.64587656 7.67203709 1 9 C0.01 9 -0.98 9 -2 9 C-2.66 6.69 -3.32 4.38 -4 2 C-2.68 1.34 -1.36 0.68 0 0 Z " fill="#E5E5E5" transform="translate(893,485)"/>
<path d="M0 0 C0.99 0.33 1.98 0.66 3 1 C2.67 2.65 2.34 4.3 2 6 C0.68 6 -0.64 6 -2 6 C-2.66 4.68 -3.32 3.36 -4 2 C-2.68 2.33 -1.36 2.66 0 3 C0 2.01 0 1.02 0 0 Z " fill="#D7D7D7" transform="translate(980,479)"/>
<path d="M0 0 C0.66 0 1.32 0 2 0 C0.55746343 3.36591866 -1.33264727 5.51047079 -4 8 C-4.33 7.34 -4.66 6.68 -5 6 C-3.38405168 3.95880212 -1.7143618 1.95927063 0 0 Z " fill="#C2C2C2" transform="translate(662,491)"/>
<path d="M0 0 C1.65 1.32 3.3 2.64 5 4 C4.67 4.66 4.34 5.32 4 6 C3.01 5.67 2.02 5.34 1 5 C0.67 5.66 0.34 6.32 0 7 C-1.125 2.25 -1.125 2.25 0 0 Z " fill="#2F2F2F" transform="translate(699,481)"/>
<path d="M0 0 C0.625 2.0625 0.625 2.0625 1 4 C-1.375 3.6875 -1.375 3.6875 -4 3 C-4.66 2.01 -5.32 1.02 -6 0 C-2.25 -1.125 -2.25 -1.125 0 0 Z " fill="#E3E3E3" transform="translate(105,578)"/>
<path d="M0 0 C3.465 1.485 3.465 1.485 7 3 C4.64561267 4.42944945 3.51967567 5.08661261 0.75 4.625 C0.1725 4.41875 -0.405 4.2125 -1 4 C-0.67 2.68 -0.34 1.36 0 0 Z " fill="#191919" transform="translate(843,509)"/>
<path d="M0 0 C0 0.99 0 1.98 0 3 C-3 5 -3 5 -5.1875 4.625 C-5.785625 4.41875 -6.38375 4.2125 -7 4 C-3.375 0 -3.375 0 0 0 Z " fill="#232323" transform="translate(644,480)"/>
<path d="M0 0 C0.66 0.99 1.32 1.98 2 3 C0.35 4.32 -1.3 5.64 -3 7 C-2.625 4.0625 -2.625 4.0625 -2 1 C-1.34 0.67 -0.68 0.34 0 0 Z " fill="#EAEAEA" transform="translate(642,475)"/>
<path d="M0 0 C2.91517292 1.07401108 4.77810176 1.77810176 7 4 C5.25 4.6875 5.25 4.6875 3 5 C0.75 3.5625 0.75 3.5625 -1 2 C-0.67 1.34 -0.34 0.68 0 0 Z " fill="#191919" transform="translate(778,472)"/>
<path d="M0 0 C-0.50603992 2.16874252 -0.99983813 3.99967627 -2 6 C-2.66 6 -3.32 6 -4 6 C-4 5.01 -4 4.02 -4 3 C-4.66 2.34 -5.32 1.68 -6 1 C-4 0 -4 0 0 0 Z " fill="#E4E4E4" transform="translate(925,471)"/>
<path d="M0 0 C0.66 0 1.32 0 2 0 C2 0.66 2 1.32 2 2 C2.66 2.33 3.32 2.66 4 3 C3.67 4.32 3.34 5.64 3 7 C2.01 6.34 1.02 5.68 0 5 C-0.1875 2.375 -0.1875 2.375 0 0 Z " fill="#0E0E0E" transform="translate(519,564)"/>
<path d="M0 0 C0.99 0 1.98 0 3 0 C3 0.99 3 1.98 3 3 C4.98 3 6.96 3 9 3 C9 3.33 9 3.66 9 4 C6.36 4 3.72 4 1 4 C0.67 2.68 0.34 1.36 0 0 Z " fill="#222222" transform="translate(375,562)"/>
<path d="M0 0 C0.33 0 0.66 0 1 0 C0.67 3.96 0.34 7.92 0 12 C-0.33 12 -0.66 12 -1 12 C-1.22162329 10.37675914 -1.42689803 8.751279 -1.625 7.125 C-1.74101563 6.22007812 -1.85703125 5.31515625 -1.9765625 4.3828125 C-1.98429688 3.59648438 -1.99203125 2.81015625 -2 2 C-1.34 1.34 -0.68 0.68 0 0 Z " fill="#C0C0C0" transform="translate(985,538)"/>
<path d="M0 0 C1.32 0 2.64 0 4 0 C4 0.66 4 1.32 4 2 C4.66 2 5.32 2 6 2 C6.33 3.65 6.66 5.3 7 7 C6.34 6.67 5.68 6.34 5 6 C5 5.34 5 4.68 5 4 C4.360625 3.71125 3.72125 3.4225 3.0625 3.125 C1 2 1 2 0 0 Z " fill="#313131" transform="translate(883,524)"/>
<path d="M0 0 C1.9375 0.75 1.9375 0.75 4 2 C4.75 4.125 4.75 4.125 5 6 C3.02 5.01 1.04 4.02 -1 3 C-0.67 2.01 -0.34 1.02 0 0 Z " fill="#E1E1E1" transform="translate(881,517)"/>
<path d="M0 0 C1.98 0.66 3.96 1.32 6 2 C5.34 2.66 4.68 3.32 4 4 C2.68 4 1.36 4 0 4 C-0.33 3.01 -0.66 2.02 -1 1 C-0.67 0.67 -0.34 0.34 0 0 Z " fill="#0C0C0C" transform="translate(686,473)"/>
<path d="M0 0 C0.66 0.33 1.32 0.66 2 1 C1.67 2.32 1.34 3.64 1 5 C-0.32 5.33 -1.64 5.66 -3 6 C-2.42655063 3.13275314 -2.1385485 2.1385485 0 0 Z " fill="#D5D5D5" transform="translate(173,472)"/>
</svg>
